PathFileType	4	TRC_standard.trc
DataRate	CameraRate	NumFrames	NumMarkers	Units	OrigDataRate	OrigDataStartFrame	OrigNumFrames
100.0	100.0	6	37	mm	100.0	1955	2234	
Frame#	Time	T10			C7			CLAV			RACR1			LACR1			RPSI			LPSI			RASI			LASI			LTH2			LTH3			LTH1			RTH2			RTH3			RTH1			RLFC			RMFC			RTB1			RTB3			RTB2			LLFC			LMFC			LTB1			LTB3			LTB2			LLMAL			LCAL			LMMAL			RLMAL			RMMAL			RCAL			RMT5			RMT1			RToe			LMT5			LMT1			LToe			
		X1	Y1	Z1	X2	Y2	Z2	X3	Y3	Z3	X4	Y4	Z4	X5	Y5	Z5	X6	Y6	Z6	X7	Y7	Z7	X8	Y8	Z8	X9	Y9	Z9	X10	Y10	Z10	X11	Y11	Z11	X12	Y12	Z12	X13	Y13	Z13	X14	Y14	Z14	X15	Y15	Z15	X16	Y16	Z16	X17	Y17	Z17	X18	Y18	Z18	X19	Y19	Z19	X20	Y20	Z20	X21	Y21	Z21	X22	Y22	Z22	X23	Y23	Z23	X24	Y24	Z24	X25	Y25	Z25	X26	Y26	Z26	X27	Y27	Z27	X28	Y28	Z28	X29	Y29	Z29	X30	Y30	Z30	X31	Y31	Z31	X32	Y32	Z32	X33	Y33	Z33	X34	Y34	Z34	X35	Y35	Z35	X36	Y36	Z36	X37	Y37	Z37	
1955	19.54	716.72455	1219.1233	-522.05292	716.93628	1476.2941	-395.56747	740.79462	1319.8787	-300.38641	563.20819	1418.5107	-353.04193	900.55591	1425.3765	-403.65527	673.86475	1009.4531	-593.57263	761.88959	1006.783	-593.10101	592.33881	963.98059	-361.31781	846.1424	970.1618	-359.61151	920.17944	771.55121	-375.36047	887.12109	721.48224	-319.51556	874.31604	859.78979	-349.57474	605.63782	674.83533	-422.34668	557.94965	746.83514	-429.19962	616.48657	786.15405	-371.32199	596.92981	484.77374	-562.30237				648.50977	370.37506	-571.54694	622.45795	303.61725	-619.05487	651.37854	254.78256	-635.24219	867.26752	510.42236	-296.8782				820.48694	410.67581	-230.99339	851.23187	340.74188	-243.52367	812.54022	290.81131	-226.2975	839.27118	81.852699	-255.70979				790.43091	31.267412	-302.27441	631.99005	100.69624	-757.26312				666.07373	77.13652	-834.30469	632.89172	45.607594	-662.32208	712.02643	47.495499	-636.2887				854.61224	57.700672	-134.58603	787.87128	78.8731	-106.25934			
1956	19.55	718.10425	1219.1071	-521.2746	718.29773	1476.2732	-394.84723	741.90125	1319.8301	-299.60458	564.43524	1418.6288	-352.63135	901.90173	1425.1892	-402.6203	675.36316	1009.576	-592.77118	763.40173	1007.0682	-592.22028	593.52454	963.65265	-360.75745	847.30414	970.23425	-358.64825	920.84076	771.63928	-374.26703	887.36603	721.36896	-318.69031	875.29877	859.80139	-348.45715	606.86279	674.41882	-423.13467	559.34375	746.47925	-429.6312	617.78809	785.58533	-371.48172	597.784	485.11459	-564.37201				648.81671	370.59726	-574.91339	622.65863	304.72791	-623.42096	651.46179	255.94032	-640.23059	867.25934	510.01566	-297.43427				819.76135	409.54446	-233.23296	850.62592	339.77823	-246.19386	811.66815	289.59128	-230.10376	838.49957	81.347916	-262.22571				790.02161	31.500776	-309.84964	631.80286	103.50589	-764.31152				666.09064	81.430099	-841.552	632.79529	45.675179	-670.76044	711.83795	47.342037	-645.03534				853.84003	56.103127	-140.82616	786.74695	75.987976	-114.08248			
1957	19.56	719.52179	1219.1772	-520.42676	719.70233	1476.3391	-394.06589	743.04285	1319.8846	-298.75256	565.70679	1418.8527	-352.16074	903.28772	1425.0922	-401.49103	676.85779	1009.7877	-591.87653	764.91241	1007.4669	-591.25525	594.76105	963.41498	-360.11456	848.50098	970.41394	-357.61359	921.56433	771.84717	-373.21054	887.70514	721.34137	-317.92145	876.34039	859.89819	-347.30109	608.10712	674.09369	-423.58334	560.75739	746.19836	-429.82211	619.13629	785.14575	-371.46609	598.62665	485.46481	-565.97638				649.05627	370.83176	-577.84308	622.81171	305.93466	-627.39673	651.47247	257.2001	-644.8504	867.31	509.65793	-298.14807				819.11853	408.40771	-235.71382	850.08923	338.81653	-249.16806	810.87518	288.3717	-234.22546	837.84106	80.874794	-269.17596				789.74335	31.789228	-317.87341	631.60138	106.53503	-771.0921				666.16266	86.091942	-848.45544	632.70715	45.75359	-679.20886	711.65277	47.181538	-653.85205				853.06305	54.350952	-147.83984	785.7572	73.123734	-122.05673			
1958	19.57	720.97522	1219.3334	-519.51715	721.14734	1476.4902	-393.2298	744.21729	1320.0409	-297.83752	567.02045	1419.1797	-351.63525	904.71069	1425.0833	-400.27487	678.34827	1010.0844	-590.89948	766.42114	1007.976	-590.21436	596.04388	963.26843	-359.40048	849.72839	970.69836	-356.5141	922.35608	772.16638	-372.20544	888.1474	721.38861	-317.2269	877.44025	860.07343	-346.11694	609.35571	673.85944	-423.68213	562.17889	745.99329	-429.76996	620.52136	784.83929	-371.27628	599.44275	485.81339	-567.08972				649.21484	371.07098	-580.30438	622.90814	307.23026	-630.94891	651.39832	258.55597	-649.0639	867.42395	509.34268	-299.03989				818.5658	407.27438	-238.43001	849.62903	337.8624	-252.42787	810.17084	287.1658	-238.62874	837.29669	80.436417	-276.46796				789.59204	32.121895	-326.22958	631.383	109.78488	-777.56274				666.29028	91.131271	-854.96045	632.63	45.852146	-687.65735	711.47357	47.022949	-662.73157				852.32837	52.538204	-155.40344	784.89722	70.347633	-130.08369			
1959	19.58	722.4624	1219.5732	-518.55438	722.62988	1476.7244	-392.34586	745.42181	1320.2957	-296.86731	568.37335	1419.6052	-351.06119	906.16754	1425.1593	-398.97995	679.83551	1010.4604	-589.85205	767.92798	1008.5893	-589.10687	597.36755	963.21307	-358.62738	850.98187	971.08337	-355.35693	923.22034	772.58557	-371.26419	888.69958	721.49677	-316.62274	878.59686	860.31885	-344.91541	610.59204	673.7149	-423.42331	563.5957	745.86475	-429.4747	621.93243	784.6687	-370.91489	600.21655	486.14914	-567.68835				649.28027	371.30756	-582.26685	622.93933	308.60583	-634.04443	651.22858	260.00064	-652.83362	867.6051	509.06259	-300.12924				818.10913	406.15213	-241.37605	849.25134	336.92065	-255.95668	809.56287	285.9848	-243.28307	836.86163	80.035637	-284.01947				789.55603	32.486656	-334.81284	631.14545	113.25403	-783.67865				666.47205	96.551659	-861.0119	632.5658	45.982773	-696.0885	711.30316	46.877789	-671.65753				851.67389	50.745781	-163.33124	784.16144	67.71682	-138.10126			
1960	19.59	723.98138	1219.8943	-517.54797	724.14679	1477.0378	-391.42157	746.65332	1320.6442	-295.85059	569.76227	1420.1241	-350.44574	907.65466	1425.316	-397.61511	681.32068	1010.9085	-588.74756	769.43365	1009.2995	-587.94318	598.72565	963.24756	-357.80865	852.25623	971.56366	-354.15012	924.15961	773.091	-370.39746	889.36487	721.6485	-316.12415	879.80737	860.62488	-343.70749	611.79883	673.65851	-422.80231	564.99457	745.81268	-428.93881	623.3576	784.6355	-370.38602	600.93311	486.46112	-567.75098				649.24158	371.5343	-583.70129	622.89844	310.05124	-636.65094	650.95441	261.52542	-656.12244	867.85657	508.81	-301.43387				817.75397	405.04706	-244.54691	848.96088	335.99475	-259.73956	809.05725	284.83795	-248.16147	836.52679	79.67453	-291.7601				789.6192	32.870453	-343.53265	630.88666	116.93801	-789.39362				666.70526	102.34984	-866.55505	632.5166	46.160004	-704.47571	711.14392	46.760101	-680.60229				851.1261	49.038754	-171.47868	783.54279	65.276306	-146.07599			
